<svg xmlns="http://www.w3.org/2000/svg" viewBox="0 0 380 600" fill="none">
  <rect width="380" height="600" rx="24" fill="#0f172a"/>
  <rect x="16" y="16" width="348" height="28" rx="6" fill="#1e293b"/>
  <rect x="140" y="22" width="100" height="16" rx="4" fill="#475569"/>
  <rect x="16" y="60" width="348" height="1" fill="#1e293b"/>
  <rect x="16" y="77" width="348" height="16" rx="4" fill="#3b82f6"/>
  <rect x="16" y="101" width="280" height="10" rx="4" fill="#475569"/>
  <rect x="16" y="127" width="348" height="44" rx="6" fill="#1e293b"/>
  <rect x="28" y="141" width="120" height="16" rx="4" fill="#e2e8f0"/>
  <rect x="16" y="183" width="348" height="44" rx="6" fill="#1e293b"/>
  <rect x="28" y="197" width="120" height="16" rx="4" fill="#e2e8f0"/>
  <rect x="16" y="239" width="348" height="44" rx="6" fill="#1e293b"/>
  <rect x="28" y="253" width="120" height="16" rx="4" fill="#e2e8f0"/>
  <rect x="16" y="299" width="160" height="80" rx="8" fill="#1e293b"/>
  <rect x="28" y="315" width="80" height="14" rx="4" fill="#f59e0b"/>
  <rect x="28" y="337" width="120" height="8" rx="4" fill="#475569"/>
  <rect x="28" y="353" width="100" height="8" rx="4" fill="#475569"/>
  <rect x="192" y="299" width="172" height="44" rx="8" fill="#3b82f6"/>
  <rect x="208" y="315" width="100" height="14" rx="4" fill="white" opacity="0.9"/>
</svg>
