<svg xmlns="http://www.w3.org/2000/svg" viewBox="0 0 600 380" fill="none">
  <rect width="600" height="380" rx="12" fill="#0f172a"/>
  <rect x="16" y="16" width="28" height="28" rx="6" fill="#3b82f6"/>
  <text x="52" y="36" fill="#e2e8f0" font-family="sans-serif" font-size="16" font-weight="bold">TK-1042</text>
  <rect x="16" y="60" width="568" height="60" rx="8" fill="#1e293b"/>
  <rect x="32" y="74" width="400" height="12" rx="4" fill="#e2e8f0"/>
  <rect x="32" y="96" width="200" height="8" rx="4" fill="#64748b"/>
  <rect x="16" y="132" width="28" height="28" rx="50%" fill="#8b5cf6"/>
  <text x="52" y="152" fill="#cbd5e1" font-family="sans-serif" font-size="14">Técnico asignado</text>
  <rect x="320" y="132" width="16" height="16" rx="4" fill="#22c55e"/>
  <text x="342" y="144" fill="#22c55e" font-family="sans-serif" font-size="12">EN PROGRESO</text>
  <rect x="16" y="176" width="568" height="1" fill="#1e293b"/>
  <rect x="16" y="193" width="28" height="28" rx="50%" fill="#3b82f6"/>
  <text x="52" y="213" fill="#e2e8f0" font-family="sans-serif" font-size="14">Comentarios</text>
  <rect x="16" y="233" width="568" height="60" rx="8" fill="#0f172a"/>
  <rect x="32" y="248" width="80" height="10" rx="4" fill="#64748b"/>
  <rect x="32" y="268" width="536" height="10" rx="4" fill="#334155"/>
  <rect x="16" y="309" width="568" height="56" rx="8" fill="#1e293b"/>
  <rect x="32" y="325" width="536" height="8" rx="4" fill="#475569"/>
  <rect x="32" y="341" width="300" height="8" rx="4" fill="#475569"/>
</svg>
